<svg width="762" height="363" viewBox="0 0 762 363" fill="none" xmlns="http://www.w3.org/2000/svg">
<path d="M13.933 131V132.573H15.0646L15.4244 131.5L13.933 131ZM-17.5196 131L-19.0035 130.478L-19.7412 132.573H-17.5196V131ZM39.7463 -31.6639V-33.237H38.6324L38.2625 -32.1863L39.7463 -31.6639ZM76.1233 -31.6639L77.6069 -32.187L77.2368 -33.237H76.1233V-31.6639ZM133.469 131V132.573H135.691L134.952 130.477L133.469 131ZM102.016 131L100.525 131.501L100.885 132.573H102.016V131ZM58.5703 1.69488L60.0614 1.19385L59.7012 0.121773H58.5703V1.69488ZM57.2994 1.69488V0.121773H56.1678L55.808 1.19467L57.2994 1.69488ZM14.9655 67.2211V65.648H13.3924V67.2211H14.9655ZM100.745 67.2211H102.318V65.648H100.745V67.2211ZM100.745 90.89V92.4631H102.318V90.89H100.745ZM14.9655 90.89H13.3924V92.4631H14.9655V90.89ZM13.933 129.427H-17.5196V132.573H13.933V129.427ZM-16.0358 131.522L41.2302 -31.1416L38.2625 -32.1863L-19.0035 130.478L-16.0358 131.522ZM39.7463 -30.0908H76.1233V-33.237H39.7463V-30.0908ZM74.6397 -31.1409L131.985 131.523L134.952 130.477L77.6069 -32.187L74.6397 -31.1409ZM133.469 129.427H102.016V132.573H133.469V129.427ZM103.507 130.499L60.0614 1.19385L57.0791 2.19591L100.525 131.501L103.507 130.499ZM58.5703 0.121773H57.2994V3.26797H58.5703V0.121773ZM55.808 1.19467L12.4415 130.5L15.4244 131.5L58.7909 2.19508L55.808 1.19467ZM14.9655 68.7942H100.745V65.648H14.9655V68.7942ZM99.1722 67.2211V90.89H102.318V67.2211H99.1722ZM100.745 89.3169H14.9655V92.4631H100.745V89.3169ZM16.5386 90.89V67.2211H13.3924V90.89H16.5386ZM154.894 131H153.321V132.573H154.894V131ZM154.894 -31.6639V-33.237H153.321V-31.6639H154.894ZM246.472 -26.1041L245.795 -24.6838L245.807 -24.6784L246.472 -26.1041ZM264.025 -11.0927L262.681 -10.2751L262.686 -10.267L264.025 -11.0927ZM266.09 27.5082L267.471 28.2615L267.474 28.255L266.09 27.5082ZM255.844 38.8661L254.96 37.5647L255.844 38.8661ZM241.468 45.1408L241.101 43.6111L239.895 43.9005V45.1408H241.468ZM241.468 46.7293H239.895V48.2182L241.381 48.3L241.468 46.7293ZM258.068 52.0508L257.249 53.3938L257.257 53.3986L257.264 53.4033L258.068 52.0508ZM271.173 65.5532L269.813 66.3443L271.173 65.5532ZM270.141 109.396L271.483 110.216L271.486 110.212L270.141 109.396ZM251.714 125.202L251.044 123.779L251.714 125.202ZM184.361 106.378H182.788V107.951H184.361V106.378ZM239.165 100.262L240.194 101.452L240.195 101.451L239.165 100.262ZM242.739 71.3513L241.395 72.1686L241.4 72.1767L242.739 71.3513ZM232.572 62.1379L231.849 63.5347L231.855 63.5381L231.862 63.5415L232.572 62.1379ZM184.361 58.7226V57.1495H182.788V58.7226H184.361ZM184.361 37.5159H182.788V39.089H184.361V37.5159ZM227.251 34.736L227.902 36.1681L227.909 36.1646L227.917 36.161L227.251 34.736ZM236.861 26.714L235.561 25.8278L235.559 25.8322L236.861 26.714ZM233.764 -1.24389L232.694 -0.0906143L232.701 -0.0842743L233.764 -1.24389ZM184.361 -7.35967V-8.93277H182.788V-7.35967H184.361ZM156.467 131V-31.6639H153.321V131H156.467ZM154.894 -30.0908H217.164V-33.237H154.894V-30.0908ZM217.164 -30.0908C228.765 -30.0908 238.285 -28.2601 245.795 -24.6839L247.148 -27.5244C239.091 -31.3612 229.072 -33.237 217.164 -33.237V-30.0908ZM245.807 -24.6784C253.409 -21.1342 259.002 -16.3228 262.681 -10.2751L265.369 -11.9102C261.317 -18.5706 255.208 -23.7669 247.136 -27.5299L245.807 -24.6784ZM262.686 -10.267C266.439 -4.18054 268.329 2.73058 268.329 10.5111H271.475C271.475 2.19473 269.447 -5.29669 265.364 -11.9184L262.686 -10.267ZM268.329 10.5111C268.329 16.93 267.097 22.3264 264.705 26.7615L267.474 28.255C270.166 23.2649 271.475 17.3299 271.475 10.5111H268.329ZM264.709 26.755C262.284 31.2004 259.037 34.7964 254.96 37.5647L256.728 40.1676C261.229 37.1113 264.812 33.1354 267.471 28.2615L264.709 26.755ZM254.96 37.5647C250.836 40.3651 246.221 42.3823 241.101 43.6111L241.835 46.6704C247.305 45.3576 252.274 43.1917 256.728 40.1676L254.96 37.5647ZM239.895 45.1408V46.7293H243.041V45.1408H239.895ZM241.381 48.3C246.875 48.6024 252.159 50.2889 257.249 53.3938L258.887 50.7078C253.387 47.3528 247.604 45.4916 241.554 45.1585L241.381 48.3ZM257.264 53.4033C262.363 56.4323 266.548 60.7313 269.813 66.3443L272.533 64.7621C269.021 58.7259 264.468 54.0234 258.871 50.6983L257.264 53.4033ZM269.813 66.3443C273.034 71.8799 274.683 78.6356 274.683 86.6804H277.829C277.829 78.2047 276.09 70.8756 272.533 64.7621L269.813 66.3443ZM274.683 86.6804C274.683 94.8331 272.713 102.119 268.795 108.581L271.486 110.212C275.723 103.224 277.829 95.366 277.829 86.6804H274.683ZM268.798 108.576C264.906 114.945 259.018 120.023 251.044 123.779L252.384 126.625C260.824 122.65 267.221 117.191 271.483 110.216L268.798 108.576ZM251.044 123.779C243.109 127.516 233.031 129.427 220.738 129.427V132.573C233.332 132.573 243.904 130.619 252.384 126.625L251.044 123.779ZM220.738 129.427H154.894V132.573H220.738V129.427ZM184.361 107.951H216.052V104.805H184.361V107.951ZM216.052 107.951C226.878 107.951 235.052 105.901 240.194 101.452L238.135 99.0726C233.852 102.778 226.617 104.805 216.052 104.805V107.951ZM240.195 101.451C245.315 97.0138 247.886 91.2805 247.886 84.3771H244.74C244.74 90.3936 242.546 95.2504 238.134 99.0735L240.195 101.451ZM247.886 84.3771C247.886 79.2857 246.623 74.6547 244.078 70.5258L241.4 72.1767C243.62 75.7786 244.74 79.8315 244.74 84.3771H247.886ZM244.083 70.5339C241.536 66.3462 237.919 63.0804 233.282 60.7342L231.862 63.5415C236.015 65.6431 239.176 68.5196 241.395 72.1686L244.083 70.5339ZM233.296 60.7411C228.632 58.3247 223.13 57.1495 216.846 57.1495V60.2957C222.74 60.2957 227.723 61.3973 231.849 63.5347L233.296 60.7411ZM216.846 57.1495H184.361V60.2957H216.846V57.1495ZM182.788 58.7226V106.378H185.934V58.7226H182.788ZM184.361 39.089H213.51V35.9428H184.361V39.089ZM213.51 39.089C218.788 39.089 223.594 38.1261 227.902 36.1681L226.6 33.3039C222.753 35.0525 218.399 35.9428 213.51 35.9428V39.089ZM227.917 36.161C232.229 34.1448 235.662 31.2922 238.164 27.5958L235.559 25.8322C233.401 29.0193 230.426 31.5147 226.584 33.3109L227.917 36.161ZM238.161 27.6002C240.744 23.8119 242.008 19.3637 242.008 14.3236H238.862C238.862 18.8145 237.744 22.6266 235.561 25.8278L238.161 27.6002ZM242.008 14.3236C242.008 7.60358 239.615 1.98624 234.827 -2.4035L232.701 -0.0842743C236.807 3.68036 238.862 8.44132 238.862 14.3236H242.008ZM234.833 -2.39714C230.04 -6.84404 223.05 -8.93277 214.145 -8.93277V-5.78657C222.609 -5.78657 228.697 -3.79811 232.694 -0.0906372L234.833 -2.39714ZM214.145 -8.93277H184.361V-5.78657H214.145V-8.93277ZM182.788 -7.35967V37.5159H185.934V-7.35967H182.788ZM437.391 94.7024L435.999 93.9707L435.998 93.9729L437.391 94.7024ZM410.704 123.296L409.908 121.939L409.905 121.941L410.704 123.296ZM334.217 123.296L333.414 124.648L333.421 124.652L334.217 123.296ZM307.53 94.623L306.135 95.3501L306.139 95.3571L307.53 94.623ZM307.53 4.71305L306.138 3.98136L306.137 3.98357L307.53 4.71305ZM334.217 -23.9597L333.421 -25.3164L333.418 -25.3147L334.217 -23.9597ZM410.704 -23.9597L409.905 -22.6046L409.908 -22.6029L410.704 -23.9597ZM437.391 4.71305L435.996 5.44012L436 5.44718L437.391 4.71305ZM411.816 18.4537L410.38 19.0959L410.385 19.1067L411.816 18.4537ZM395.931 -0.846748L395.075 0.473167L395.083 0.477852L395.931 -0.846748ZM349.07 -0.846748L349.919 0.477875L349.926 0.473152L349.07 -0.846748ZM333.105 18.4537L331.673 17.8041L331.671 17.8082L333.105 18.4537ZM333.105 80.9618L331.669 81.604L331.674 81.6147L333.105 80.9618ZM349.07 100.262L348.214 101.582L348.221 101.587L349.07 100.262ZM395.931 100.262L396.78 101.587L396.787 101.582L395.931 100.262ZM411.816 80.9618L410.384 80.3122L410.382 80.3162L411.816 80.9618ZM445.667 49.668C445.667 67.0002 442.421 81.7482 435.999 93.9707L438.784 95.4341C445.494 82.664 448.813 67.3891 448.813 49.668H445.667ZM435.998 93.9729C429.611 106.176 420.914 115.48 409.908 121.939L411.501 124.652C423.052 117.874 432.146 108.116 438.785 95.4319L435.998 93.9729ZM409.905 121.941C398.944 128.404 386.49 131.651 372.501 131.651V134.797C386.998 134.797 400.014 131.425 411.503 124.651L409.905 121.941ZM372.501 131.651C358.511 131.651 346.029 128.404 335.014 121.939L333.421 124.652C344.962 131.425 358.003 134.797 372.501 134.797V131.651ZM335.021 121.943C324.064 115.431 315.363 106.097 308.922 93.8889L306.139 95.3571C312.829 108.036 321.92 117.817 333.414 124.648L335.021 121.943ZM308.925 93.896C302.554 81.6717 299.334 66.9482 299.334 49.668H296.188C296.188 67.3352 299.481 82.5817 306.135 95.3501L308.925 93.896ZM299.334 49.668C299.334 32.3337 302.555 17.6118 308.924 5.44254L306.137 3.98357C299.48 16.7011 296.188 31.9491 296.188 49.668H299.334ZM308.923 5.44475C315.364 -6.81501 324.064 -16.1467 335.016 -22.6046L333.418 -25.3147C321.92 -18.535 312.828 -8.75152 306.138 3.98136L308.923 5.44475ZM335.014 -22.6029C346.029 -29.0676 358.511 -32.3148 372.501 -32.3148V-35.461C358.003 -35.461 344.962 -32.0894 333.421 -25.3164L335.014 -22.6029ZM372.501 -32.3148C386.49 -32.3148 398.944 -29.0676 409.905 -22.6046L411.503 -25.3147C400.014 -32.0894 386.998 -35.461 372.501 -35.461V-32.3148ZM409.908 -22.6029C420.912 -16.1452 429.609 -6.81541 435.996 5.44011L438.786 3.986C432.148 -8.75111 423.054 -18.5364 411.501 -25.3164L409.908 -22.6029ZM436 5.44718C442.421 17.6153 445.667 32.3355 445.667 49.668H448.813C448.813 31.9473 445.494 16.6975 438.783 3.97892L436 5.44718ZM419.187 49.668C419.187 37.175 417.232 26.5329 413.247 17.8007L410.385 19.1067C414.132 27.3186 416.041 37.4862 416.041 49.668H419.187ZM413.252 17.8115C409.335 9.05252 403.855 2.36114 396.78 -2.17135L395.083 0.477852C401.563 4.62925 406.672 10.8048 410.38 19.0959L413.252 17.8115ZM396.787 -2.16664C389.73 -6.74235 381.617 -9.01218 372.501 -9.01218V-5.86599C381.069 -5.86599 388.576 -3.74092 395.075 0.473152L396.787 -2.16664ZM372.501 -9.01218C363.384 -9.01218 355.271 -6.74235 348.214 -2.16664L349.926 0.473152C356.425 -3.74092 363.932 -5.86599 372.501 -5.86599V-9.01218ZM348.221 -2.17135C341.148 2.35976 335.643 9.04844 331.673 17.8041L334.538 19.1033C338.299 10.8089 343.436 4.63062 349.919 0.477852L348.221 -2.17135ZM331.671 17.8082C327.742 26.5382 325.814 37.1774 325.814 49.668H328.96C328.96 37.4837 330.844 27.3134 334.54 19.0992L331.671 17.8082ZM325.814 49.668C325.814 62.1591 327.742 72.8231 331.669 81.604L334.541 80.3196C330.843 72.0504 328.96 61.8518 328.96 49.668H325.814ZM331.674 81.6147C335.645 90.3168 341.148 97.0005 348.214 101.582L349.926 98.9423C343.436 94.7342 338.297 88.5509 334.537 80.3088L331.674 81.6147ZM348.221 101.587C355.277 106.107 363.388 108.348 372.501 108.348V105.202C363.928 105.202 356.418 103.101 349.919 98.9376L348.221 101.587ZM372.501 108.348C381.613 108.348 389.724 106.107 396.78 101.587L395.083 98.9376C388.583 103.101 381.073 105.202 372.501 105.202V108.348ZM396.787 101.582C403.855 96.9991 409.333 90.3127 413.251 81.6073L410.382 80.3162C406.674 88.555 401.563 94.7355 395.075 98.9423L396.787 101.582ZM413.249 81.6114C417.231 72.8283 419.187 62.1616 419.187 49.668H416.041C416.041 61.8494 414.132 72.0452 410.384 80.3122L413.249 81.6114ZM577.637 -31.6639V-33.237H576.064V-31.6639H577.637ZM607.104 -31.6639H608.677V-33.237H607.104V-31.6639ZM598.844 105.345L597.509 104.514L597.505 104.52L598.844 105.345ZM575.811 126.076L576.511 127.484L576.517 127.481L575.811 126.076ZM506.313 126.076L505.607 127.481L505.613 127.484L506.313 126.076ZM483.28 105.345L484.619 104.52L483.28 105.345ZM475.099 -31.6639V-33.237H473.526V-31.6639H475.099ZM504.566 -31.6639H506.139V-33.237H504.566V-31.6639ZM509.014 90.2546L507.641 91.0232L507.647 91.0336L509.014 90.2546ZM521.722 102.724L520.96 104.101L520.97 104.106L521.722 102.724ZM560.481 102.724L561.233 104.106L561.237 104.104L560.481 102.724ZM573.19 90.2546L574.562 91.0232L573.19 90.2546ZM577.637 -30.0908H607.104V-33.237H577.637V-30.0908ZM605.531 -31.6639V74.6077H608.677V-31.6639H605.531ZM605.531 74.6077C605.531 85.9986 602.842 95.9494 597.509 104.514L600.179 106.177C605.86 97.0561 608.677 86.515 608.677 74.6077H605.531ZM597.505 104.52C592.215 113.098 584.763 119.815 575.104 124.67L576.517 127.481C586.661 122.382 594.566 115.279 600.183 106.171L597.505 104.52ZM575.11 124.667C565.465 129.464 554.143 131.889 541.102 131.889V135.035C554.535 135.035 566.353 132.536 576.511 127.484L575.11 124.667ZM541.102 131.889C528.006 131.889 516.658 129.464 507.014 124.667L505.613 127.484C515.772 132.536 527.616 135.035 541.102 135.035V131.889ZM507.02 124.67C497.36 119.815 489.909 113.098 484.619 104.52L481.941 106.171C487.558 115.279 495.462 122.382 505.607 127.481L507.02 124.67ZM484.619 104.52C479.336 95.9544 476.672 86.0015 476.672 74.6077H473.526C473.526 86.5121 476.316 97.0511 481.941 106.171L484.619 104.52ZM476.672 74.6077V-31.6639H473.526V74.6077H476.672ZM475.099 -30.0908H504.566V-33.237H475.099V-30.0908ZM502.993 -31.6639V72.1455H506.139V-31.6639H502.993ZM502.993 72.1455C502.993 79.1602 504.529 85.4668 507.641 91.0232L510.386 89.486C507.567 84.4522 506.139 78.6861 506.139 72.1455H502.993ZM507.647 91.0336C510.811 96.5855 515.259 100.946 520.96 104.101L522.483 101.348C517.276 98.4663 513.252 94.5138 510.38 89.4756L507.647 91.0336ZM520.97 104.106C526.697 107.22 533.426 108.745 541.102 108.745V105.599C533.845 105.599 527.654 104.159 522.473 101.342L520.97 104.106ZM541.102 108.745C548.777 108.745 555.506 107.22 561.233 104.106L559.73 101.342C554.549 104.159 548.358 105.599 541.102 105.599V108.745ZM561.237 104.104C566.994 100.949 571.448 96.5849 574.562 91.0232L571.817 89.486C569.001 94.5144 564.983 98.4634 559.725 101.345L561.237 104.104ZM574.562 91.0232C577.674 85.4668 579.211 79.1602 579.211 72.1455H576.064C576.064 78.6861 574.636 84.4522 571.817 89.486L574.562 91.0232ZM579.211 72.1455V-31.6639H576.064V72.1455H579.211ZM631.984 -6.96253H630.411V-5.38943H631.984V-6.96253ZM631.984 -31.6639V-33.237H630.411V-31.6639H631.984ZM761.766 -31.6639H763.339V-33.237H761.766V-31.6639ZM761.766 -6.96253V-5.38943H763.339V-6.96253H761.766ZM711.49 -6.96253V-8.53563H709.917V-6.96253H711.49ZM711.49 131V132.573H713.063V131H711.49ZM682.261 131H680.688V132.573H682.261V131ZM682.261 -6.96253H683.834V-8.53563H682.261V-6.96253ZM633.558 -6.96253V-31.6639H630.411V-6.96253H633.558ZM631.984 -30.0908H761.766V-33.237H631.984V-30.0908ZM760.193 -31.6639V-6.96253H763.339V-31.6639H760.193ZM761.766 -8.53563H711.49V-5.38943H761.766V-8.53563ZM709.917 -6.96253V131H713.063V-6.96253H709.917ZM711.49 129.427H682.261V132.573H711.49V129.427ZM683.834 131V-6.96253H680.688V131H683.834ZM682.261 -8.53563H631.984V-5.38943H682.261V-8.53563ZM95.5827 197.336V195.763H94.0096V197.336H95.5827ZM125.05 197.336H126.623V195.763H125.05V197.336ZM116.789 334.345L115.454 333.514L115.45 333.52L116.789 334.345ZM93.7559 355.076L94.4564 356.484L94.4624 356.481L93.7559 355.076ZM24.2583 355.076L23.5518 356.481L23.5578 356.484L24.2583 355.076ZM1.22486 334.345L2.56377 333.52L1.22486 334.345ZM-6.956 197.336V195.763H-8.5291V197.336H-6.956ZM22.511 197.336H24.0841V195.763H22.511V197.336ZM26.9588 319.255L25.5862 320.023L25.5921 320.034L26.9588 319.255ZM39.6669 331.724L38.9052 333.101L38.9155 333.106L39.6669 331.724ZM78.4267 331.724L79.1781 333.106L79.1828 333.104L78.4267 331.724ZM91.1348 319.255L92.5073 320.023L91.1348 319.255ZM95.5827 198.909H125.05V195.763H95.5827V198.909ZM123.477 197.336V303.608H126.623V197.336H123.477ZM123.477 303.608C123.477 314.999 120.788 324.949 115.454 333.514L118.125 335.177C123.805 326.056 126.623 315.515 126.623 303.608H123.477ZM115.45 333.52C110.16 342.098 102.709 348.815 93.0493 353.67L94.4624 356.481C104.606 351.382 112.511 344.279 118.128 335.171L115.45 333.52ZM93.0554 353.667C83.4101 358.464 72.0888 360.889 59.0468 360.889V364.035C72.4801 364.035 84.2981 361.536 94.4564 356.484L93.0554 353.667ZM59.0468 360.889C45.9508 360.889 34.6033 358.464 24.9588 353.667L23.5578 356.484C33.7169 361.536 45.5617 364.035 59.0468 364.035V360.889ZM24.9648 353.67C15.3054 348.815 7.85436 342.098 2.56377 333.52L-0.114061 335.171C5.50316 344.279 13.4077 351.382 23.5518 356.481L24.9648 353.67ZM2.56377 333.52C-2.71901 324.954 -5.3829 315.002 -5.3829 303.608H-8.5291C-8.5291 315.512 -5.73909 326.051 -0.114061 335.171L2.56377 333.52ZM-5.3829 303.608V197.336H-8.5291V303.608H-5.3829ZM-6.956 198.909H22.511V195.763H-6.956V198.909ZM20.9379 197.336V301.146H24.0841V197.336H20.9379ZM20.9379 301.146C20.9379 308.16 22.4747 314.467 25.5863 320.023L28.3313 318.486C25.5124 313.452 24.0841 307.686 24.0841 301.146H20.9379ZM25.5921 320.034C28.7567 325.585 33.2047 329.946 38.9052 333.101L40.4286 330.348C35.2213 327.466 31.1973 323.514 28.3255 318.476L25.5921 320.034ZM38.9155 333.106C44.6424 336.22 51.3712 337.745 59.0468 337.745V334.599C51.7903 334.599 45.5992 333.159 40.4183 330.342L38.9155 333.106ZM59.0468 337.745C66.7224 337.745 73.4512 336.22 79.1781 333.106L77.6753 330.342C72.4944 333.159 66.3033 334.599 59.0468 334.599V337.745ZM79.1828 333.104C84.9389 329.949 89.3928 325.585 92.5073 320.023L89.7623 318.486C86.9464 323.514 82.9282 327.463 77.6706 330.345L79.1828 333.104ZM92.5073 320.023C95.6189 314.467 97.1558 308.16 97.1558 301.146H94.0096C94.0096 307.686 92.5812 313.452 89.7623 318.486L92.5073 320.023ZM97.1558 301.146V197.336H94.0096V301.146H97.1558ZM245.479 242.053L243.915 242.22L244.065 243.626H245.479V242.053ZM236.107 225.85L235.197 227.133L235.203 227.137L236.107 225.85ZM199.015 222.832L199.626 224.281H199.626L199.015 222.832ZM188.928 230.377L187.659 229.447L188.928 230.377ZM185.354 241.259L183.781 241.238L183.781 241.248V241.259H185.354ZM187.657 250.075L186.318 250.901L186.324 250.911L186.331 250.921L187.657 250.075ZM194.09 256.429L193.236 257.75L193.245 257.755L193.254 257.761L194.09 256.429ZM203.066 260.718L202.539 262.2L203.066 260.718ZM212.994 263.657L213.375 262.13L213.367 262.128L213.358 262.126L212.994 263.657ZM228.243 267.469L227.862 268.995L227.874 268.998L227.887 269.001L228.243 267.469ZM245.955 273.267L245.334 274.712L245.339 274.714L245.955 273.267ZM261.285 282.48L260.285 283.695L260.292 283.701L261.285 282.48ZM268.751 339.508L270.054 340.39L270.057 340.385L268.751 339.508ZM247.623 356.426L248.256 357.866L248.26 357.864L247.623 356.426ZM181.382 356.585L180.77 358.034L180.773 358.035L181.382 356.585ZM159.62 339.429L158.325 340.322L158.329 340.328L159.62 339.429ZM151.201 311.947V310.374H149.565L149.629 312.009L151.201 311.947ZM180.191 311.947L181.76 311.83L181.651 310.374H180.191V311.947ZM185.433 326.085L186.651 325.09L185.433 326.085ZM197.426 334.504L196.872 335.977L196.877 335.979L197.426 334.504ZM230.944 334.425L231.523 335.888L231.531 335.884L230.944 334.425ZM242.381 326.323L243.61 327.306L243.617 327.297L242.381 326.323ZM246.591 314.092L248.164 314.11L248.164 314.091L248.164 314.072L246.591 314.092ZM242.858 303.608L241.67 304.639L241.675 304.644L241.68 304.65L242.858 303.608ZM232.612 296.618L231.98 298.059L231.99 298.063L232.001 298.068L232.612 296.618ZM217.362 291.535L216.97 293.058L216.974 293.059L217.362 291.535ZM198.856 286.769L199.248 285.246L199.247 285.246L198.856 286.769ZM167.086 271.123L166.026 272.286L166.035 272.293L167.086 271.123ZM163.273 217.907L162.001 216.982L161.997 216.988L163.273 217.907ZM184.639 201.148L185.274 202.588L185.281 202.585L184.639 201.148ZM245.558 201.148L244.897 202.576L244.907 202.581L245.558 201.148ZM266.13 217.748L264.842 218.652L264.845 218.656L266.13 217.748ZM273.834 242.053V243.626H275.435L275.407 242.025L273.834 242.053ZM247.043 241.886C246.256 234.517 242.904 228.699 237.01 224.562L235.203 227.137C240.323 230.731 243.22 235.716 243.915 242.22L247.043 241.886ZM237.016 224.566C231.226 220.462 223.784 218.479 214.821 218.479V221.625C223.331 221.625 230.08 223.507 235.197 227.133L237.016 224.566ZM214.821 218.479C208.526 218.479 203.039 219.428 198.404 221.382L199.626 224.281C203.781 222.529 208.83 221.625 214.821 221.625V218.479ZM198.404 221.382C193.802 223.323 190.189 225.997 187.659 229.447L190.196 231.307C192.326 228.404 195.438 226.047 199.626 224.281L198.404 221.382ZM187.659 229.447C185.129 232.898 183.838 236.846 183.781 241.238L186.927 241.279C186.975 237.517 188.067 234.211 190.196 231.307L187.659 229.447ZM183.781 241.259C183.781 244.892 184.606 248.127 186.318 250.901L188.996 249.249C187.636 247.046 186.927 244.403 186.927 241.259H183.781ZM186.331 250.921C188.051 253.616 190.363 255.891 193.236 257.75L194.945 255.108C192.417 253.472 190.44 251.51 188.983 249.228L186.331 250.921ZM193.254 257.761C196.061 259.522 199.158 261 202.539 262.2L203.592 259.235C200.407 258.105 197.521 256.724 194.927 255.096L193.254 257.761ZM202.539 262.2C205.875 263.384 209.238 264.379 212.629 265.187L213.358 262.126C210.078 261.345 206.822 260.382 203.592 259.235L202.539 262.2ZM212.612 265.183L227.862 268.995L228.625 265.943L213.375 262.13L212.612 265.183ZM227.887 269.001C233.941 270.41 239.756 272.314 245.334 274.712L246.577 271.822C240.824 269.349 234.831 267.387 228.6 265.937L227.887 269.001ZM245.339 274.714C250.928 277.095 255.907 280.09 260.285 283.695L262.285 281.266C257.66 277.458 252.42 274.311 246.572 271.82L245.339 274.714ZM260.292 283.701C264.674 287.267 268.134 291.568 270.682 296.613L273.491 295.194C270.744 289.755 267.003 285.107 262.278 281.26L260.292 283.701ZM270.682 296.613C273.199 301.595 274.485 307.486 274.485 314.33H277.631C277.631 307.09 276.269 300.696 273.491 295.194L270.682 296.613ZM274.485 314.33C274.485 323.579 272.126 331.66 267.445 338.631L270.057 340.385C275.118 332.848 277.631 324.144 277.631 314.33H274.485ZM267.448 338.627C262.767 345.547 255.974 351.01 246.987 354.987L248.26 357.864C257.7 353.687 264.992 347.872 270.054 340.39L267.448 338.627ZM246.991 354.986C238.08 358.9 227.215 360.889 214.344 360.889V364.035C227.525 364.035 238.846 362 248.256 357.866L246.991 354.986ZM214.344 360.889C201.847 360.889 191.076 358.954 181.992 355.135L180.773 358.035C190.327 362.052 201.53 364.035 214.344 364.035V360.889ZM181.995 355.136C172.974 351.321 165.966 345.781 160.91 338.529L158.329 340.328C163.757 348.114 171.258 354.011 180.77 358.034L181.995 355.136ZM160.914 338.535C155.924 331.304 153.187 322.445 152.772 311.886L149.629 312.009C150.062 323.054 152.937 332.516 158.325 340.322L160.914 338.535ZM151.201 313.521H180.191V310.374H151.201V313.521ZM178.622 312.065C179.066 317.996 180.907 323.031 184.215 327.08L186.651 325.09C183.817 321.621 182.163 317.231 181.76 311.83L178.622 312.065ZM184.215 327.08C187.476 331.073 191.711 334.034 196.872 335.977L197.98 333.032C193.293 331.268 189.532 328.617 186.651 325.09L184.215 327.08ZM196.877 335.979C202.056 337.907 207.805 338.857 214.106 338.857V335.711C208.122 335.711 202.752 334.809 197.975 333.03L196.877 335.979ZM214.106 338.857C220.666 338.857 226.482 337.882 231.523 335.888L230.365 332.962C225.769 334.78 220.36 335.711 214.106 335.711V338.857ZM231.531 335.884C236.606 333.844 240.657 330.997 243.61 327.306L241.153 325.341C238.598 328.534 235.025 331.088 230.357 332.965L231.531 335.884ZM243.617 327.297C246.596 323.516 248.107 319.099 248.164 314.11L245.018 314.074C244.969 318.404 243.674 322.141 241.146 325.35L243.617 327.297ZM248.164 314.072C248.107 309.52 246.759 305.644 244.036 302.565L241.68 304.65C243.828 307.078 244.969 310.192 245.018 314.112L248.164 314.072ZM244.046 302.577C241.414 299.544 237.779 297.09 233.223 295.169L232.001 298.068C236.235 299.853 239.43 302.058 241.67 304.639L244.046 302.577ZM233.244 295.178C228.806 293.229 223.637 291.509 217.75 290.01L216.974 293.059C222.736 294.526 227.734 296.195 231.98 298.059L233.244 295.178ZM217.754 290.012L199.248 285.246L198.464 288.293L216.97 293.058L217.754 290.012ZM199.247 285.246C186.02 281.848 175.681 276.727 168.137 269.952L166.035 272.293C174.057 279.497 184.899 284.808 198.465 288.293L199.247 285.246ZM168.145 269.96C160.781 263.251 157.063 254.348 157.063 243.085H153.916C153.916 255.121 157.929 264.909 166.026 272.285L168.145 269.96ZM157.063 243.085C157.063 233.804 159.569 225.739 164.549 218.827L161.997 216.988C156.599 224.478 153.916 233.199 153.916 243.085H157.063ZM164.545 218.833C169.607 211.879 176.499 206.459 185.274 202.588L184.004 199.709C174.776 203.78 167.423 209.533 162.001 216.982L164.545 218.833ZM185.281 202.585C194.051 198.664 204.021 196.685 215.218 196.685V193.539C203.646 193.539 193.229 195.585 183.997 199.712L185.281 202.585ZM215.218 196.685C226.579 196.685 236.459 198.665 244.897 202.576L246.22 199.721C237.29 195.583 226.943 193.539 215.218 193.539V196.685ZM244.907 202.581C253.417 206.448 260.043 211.811 264.842 218.652L267.417 216.845C262.262 209.496 255.174 203.791 246.209 199.716L244.907 202.581ZM264.845 218.656C269.628 225.424 272.107 233.215 272.261 242.08L275.407 242.025C275.243 232.57 272.586 224.157 267.414 216.841L264.845 218.656ZM273.834 240.48H245.479V243.626H273.834V240.48Z" fill="url(#paint0_linear_93_3412)" fill-opacity="0.2"/>
<defs>
<linearGradient id="paint0_linear_93_3412" x1="465" y1="-65" x2="464.871" y2="427" gradientUnits="userSpaceOnUse">
<stop stop-color="white"/>
<stop offset="1" stop-color="white" stop-opacity="0"/>
</linearGradient>
</defs>
</svg>
